<?xml version="1.0" encoding="utf-8"?>
<svg id="master-artboard" viewBox="0 0 87.45648193359375 132.03189086914062" version="1.1" xmlns="http://www.w3.org/2000/svg" x="0px" y="0px" style="enable-background:new 0 0 1400 980;" width="87.45648193359375px" height="132.03189086914062px"><rect id="ee-background" x="0" y="0" width="87.45648193359375" height="132.03189086914062" style="fill: white; fill-opacity: 0; pointer-events: none;"/><defs><style id="ee-google-fonts">@import url(https://fonts.googleapis.com/css?family=Mandali:400);</style></defs><g transform="matrix(0.49929338693618774, 0, 0, 0.49929338693618774, -617.0545902252197, -339.64374828338623)"><g transform="matrix(1, 0, 0, 1, 904.9865029579404, 282.80828922046834)"><path d="M 337.527587890625 537.33203125 L 364.25347900390625 783.5921020507812 L 478.18695068359375 783.5921020507812 L 501.70098876953125 537.33203125 L 337.527587890625 537.33203125 Z" style="fill: rgb(251, 251, 251); fill-opacity: 0; stroke: rgb(3, 43, 47); stroke-opacity: 1; stroke-width: 10; paint-order: fill;" transform="matrix(0.6511635184288025, 0, 0, 0.6511635184288025, 144.27792358398438, 118.35514831542969)"/><g id="g-7" transform="matrix(1.2417062520980835, 0, 0, 1.2417062520980835, 283.6473388671875, 282.78692626953125)">
		<path class="st0" d="M 58 132.97349548339844 L 157.64114379882812 133.33235549926758 L 158 149 L 58 149 L 58 132.97349548339844 Z" style="fill: rgb(215, 57, 49); fill-opacity: 1; stroke: rgb(3, 43, 47); stroke-width: 6; paint-order: fill; stroke-opacity: 1;"/>
	</g><path d="M 586.5878295898438 154.6748809814453 L 594.75146484375 133.89468383789062 L 686.0359497070312 133.89468383789062 L 693.4573974609375 154.6748809814453" style="fill: rgb(215, 57, 49); fill-opacity: 1; stroke: rgb(3, 43, 47); stroke-opacity: 1; stroke-width: 7; paint-order: fill;" transform="matrix(1, 0, 0, 1, -223.22474670410156, 290.8968200683594)"/></g></g><g transform="matrix(0.5124560594558716, 0, 0, 0.5124560594558716, -72.13282203674316, -513.1934309005737)"><g transform="matrix(0.6707437634468079, 0, 0, 0.6707437634468079, -210.92471313476562, 1070.5401611328125)"><g id="g-10" transform="matrix(1, 0, 0, 1, 0, 0)">
	<g id="g-11">
		<path class="st0" d="M652,46c27.6,0,50,22.4,50,50s-22.4,50-50,50s-50-22.4-50-50S624.4,46,652,46z" style="fill: rgb(251, 251, 251); fill-opacity: 0; stroke: rgb(3, 43, 47); stroke-width: 10;"/>
	</g>
</g></g></g></svg>