<?xml version="1.0" encoding="utf-8"?>
<svg id="master-artboard" viewBox="0 0 142.73077392578125 228.32481384277344" version="1.1" xmlns="http://www.w3.org/2000/svg" x="0px" y="0px" style="enable-background:new 0 0 1400 980;" width="142.73077392578125px" height="228.32481384277344px"><rect id="ee-background" x="0" y="0" width="142.73077392578125" height="228.32481384277344" style="fill: white; fill-opacity: 0; pointer-events: none;" transform="matrix(1, 0, 0, 1, 0, -1)"/><defs><style id="ee-google-fonts">@import url(https://fonts.googleapis.com/css?family=Mandali:400);</style></defs><g transform="matrix(1.2417062520980835, 0, 0, 1.2417062520980835, -62.89142417907715, -125.95965576171875)"><g><path d="M 337.527587890625 537.33203125 L 364.25347900390625 783.5921020507812 L 478.18695068359375 783.5921020507812 L 501.70098876953125 537.33203125 L 337.527587890625 537.33203125 Z" style="fill: rgb(208, 211, 197); fill-opacity: 0; stroke: rgb(208, 211, 197); stroke-opacity: 1; stroke-width: 10; paint-order: fill;" transform="matrix(0.5244102760443914, 0, 0, 0.5244102760443914, -111.43490261839582, -132.4240543108529)"/><g id="g-7" transform="matrix(1, 0, 0, 1, 0, 0)">
	<g id="g-8">
		<path class="st0" d="M 58 132.97349548339844 L 157.64114379882812 133.33235549926758 L 158 149 L 58 149 L 58 132.97349548339844 Z" style="fill: rgb(208, 211, 197); fill-opacity: 0; stroke: rgb(208, 211, 197); stroke-width: 6; paint-order: stroke; stroke-opacity: 1;"/>
	</g>
</g><path d="M 586.5878295898438 154.6748809814453 L 594.75146484375 133.89468383789062 L 686.0359497070312 133.89468383789062 L 693.4573974609375 154.6748809814453" style="fill: rgb(208, 211, 197); fill-opacity: 0; stroke: rgb(208, 211, 197); stroke-opacity: 1; stroke-width: 7; paint-order: fill;" transform="matrix(0.8053434524552987, 0, 0, 0.8053434524552987, -408.20610305863374, 5.72589557003921)"/></g></g></svg>